<?xml version="1.0" encoding="iso-8859-1"?>
<!-- Generator: Adobe Illustrator 19.0.0, SVG Export Plug-In . SVG Version: 6.00 Build 0)  -->
<svg version="1.1" fill="#3331bf" id="Capa_1" xmlns="http://www.w3.org/2000/svg" xmlns:xlink="http://www.w3.org/1999/xlink" x="0px" y="0px"
	 viewBox="0 0 489.4 489.4" style="enable-background:new 0 0 489.4 489.4;" xml:space="preserve">
<g>
	<path d="M369.75,44.3V0h-250.2v44.3h-85.6V110c0,47.2,38.4,85.6,85.6,85.6h1.5c7.9,51.3,47,92.2,97.2,103v70.9h-30.7
		c-9.5,0-17.1,7.7-17.1,17.1v22.5h-26.2v80.3h200.9v-80.3h-26.2v-22.5c0-9.5-7.7-17.1-17.1-17.1h-30.7v-70.9
		c50.3-10.8,89.3-51.8,97.2-103h1.5c47.2,0,85.6-38.4,85.6-85.6V44.3H369.75z M119.55,152.3c-23.3,0-42.3-19-42.3-42.3V87.6h42.3
		V152.3z M251.95,164.3l-22,21.8l-21.8-22l-21-21.2l22-21.8l21,21.2l50.3-50l21.8,22L251.95,164.3z M411.95,110
		c0,23.3-18.9,42.3-42.2,42.3V87.6h42.2V110z"/>
</g>
<g>
</g>
<g>
</g>
<g>
</g>
<g>
</g>
<g>
</g>
<g>
</g>
<g>
</g>
<g>
</g>
<g>
</g>
<g>
</g>
<g>
</g>
<g>
</g>
<g>
</g>
<g>
</g>
<g>
</g>
</svg>
