<?xml version="1.0" encoding="iso-8859-1"?>
<!-- Generator: Adobe Illustrator 19.0.0, SVG Export Plug-In . SVG Version: 6.00 Build 0)  -->
<svg version="1.1" fill="#3331bf" id="Layer_1" xmlns="http://www.w3.org/2000/svg" xmlns:xlink="http://www.w3.org/1999/xlink" x="0px" y="0px"
	 viewBox="0 0 512.853 512.853" style="enable-background:new 0 0 512.853 512.853;" xml:space="preserve">
<g transform="translate(1 1)">
	<g>
		<g>
			<path d="M504.173,213.613l-74.24-81.92c-5.973-5.973-13.653-9.387-21.333-9.387h-78.507c-13.653,0-23.893,11.093-23.893,23.893
				v181.76h-41.326l31.695-221.867h77.897c5.12,0,8.533-3.413,8.533-8.533s-3.413-8.533-8.533-8.533h-81.493l-40.533-48.64
				c-0.853-0.853-3.413-2.56-5.12-2.56l-59.733-8.533c-2.56,0-5.12,0.853-6.827,2.56L156.013,56.6l-22.187,14.507l-47.787-7.68
				c-4.267-0.853-8.533,1.707-9.387,5.12l-23.68,63.147H41.667c-3.413,0-6.827,1.707-8.533,5.12L-1,222.147c0,1.707,0,3.413,0,5.12
				L24.6,338.2v71.68c0,11.093,9.387,20.48,20.48,20.48h5.723c4.075,29.155,28.753,51.2,59.131,51.2
				c30.378,0,55.056-22.045,59.131-51.2h180.405c4.075,29.155,28.753,51.2,59.131,51.2s55.056-22.045,59.131-51.2h22.789
				c11.093,0,20.48-9.387,21.333-20.48V233.24C511.853,225.56,509.293,218.733,504.173,213.613z M493.933,233.24v26.453h-128V174.36
				h77.653l46.933,51.2c0.64,0.427,1.173,0.96,1.613,1.56c0.22,0.3,0.417,0.617,0.592,0.945
				C493.6,229.707,493.933,231.64,493.933,233.24z M89.453,81.347l44.373,7.68c2.56,0,4.267,0,6.827-2.56l25.6-17.067
				c0.853,0,1.707-0.853,1.707-0.853l22.187-22.187l52.053,7.68l29.013,34.987h-33.28c-0.426,0-0.851,0.027-1.272,0.08
				c-0.004,0.001-0.009,0.001-0.013,0.002c-0.394,0.05-0.783,0.125-1.164,0.222c-0.073,0.018-0.145,0.04-0.218,0.06
				c-0.249,0.07-0.493,0.151-0.733,0.241c-2.126,0.765-4.005,2.259-5.133,4.515l-12.8,32.427c-1.707,3.413-4.267,5.12-7.68,5.12
				H70.68L89.453,81.347z M23.89,259.663c0.234,0.015,0.468,0.03,0.71,0.03h128c5.12,0,8.533-3.413,8.533-8.533
				s-3.413-8.533-8.533-8.533h-128c-1.699,0-3.205,0.383-4.466,1.073l-4.067-17.286l3.817-9.387h90.05
				c5.12,0,8.533-3.413,8.533-8.533s-3.413-8.533-8.533-8.533H26.822l20.818-51.2h11.093h151.04c10.24,0,19.627-5.973,23.04-15.36
				l11.093-27.307h34.987L247.32,327.96H39.96L23.89,259.663z M109.933,464.493c-23.893,0-42.667-18.773-42.667-42.667
				c0-23.893,18.773-42.667,42.667-42.667c23.893,0,42.667,18.773,42.667,42.667C152.6,445.72,133.827,464.493,109.933,464.493z
				 M408.6,464.493c-23.893,0-42.667-18.773-42.667-42.667c0-23.893,18.773-42.667,42.667-42.667
				c23.893,0,42.667,18.773,42.667,42.667C451.267,445.72,432.493,464.493,408.6,464.493z M490.52,413.293h-22.789
				c-4.075-29.155-28.753-51.2-59.131-51.2c-0.138,0-0.274,0.009-0.412,0.01c-0.148-0.001-0.294-0.01-0.441-0.01
				c-29.867,0-54.613,22.187-58.88,51.2H169.064c-3.821-27.339-25.761-48.416-53.528-50.936c-0.203-0.019-0.409-0.029-0.613-0.046
				c-0.699-0.056-1.397-0.114-2.103-0.147c-0.957-0.046-1.919-0.072-2.887-0.072s-1.93,0.026-2.887,0.072
				c-0.706,0.033-1.404,0.09-2.103,0.147c-0.204,0.017-0.41,0.027-0.613,0.046c-27.767,2.52-49.707,23.597-53.528,50.936H45.08
				c-1.707,0-3.413-1.707-3.413-3.413v-64.853H255h68.267V147.053c0-4.267,3.413-6.827,6.827-6.827H408.6
				c3.413,0,5.973,0.853,8.533,3.413l12.231,13.653h-65.991c-7.68,0-14.507,6.827-14.507,14.507v90.453
				c0,7.68,6.827,14.507,14.507,14.507h130.56v42.667h-42.667c-5.12,0-8.533,3.413-8.533,8.533s3.413,8.533,8.533,8.533h42.667
				v73.387C493.933,411.587,492.227,413.293,490.52,413.293z"/>
			<path d="M109.933,404.76c-9.387,0-17.067,7.68-17.067,17.067s7.68,17.067,17.067,17.067S127,431.213,127,421.827
				S119.32,404.76,109.933,404.76z"/>
			<path d="M408.6,404.76c-9.387,0-17.067,7.68-17.067,17.067s7.68,17.067,17.067,17.067s17.067-7.68,17.067-17.067
				S417.987,404.76,408.6,404.76z"/>
		</g>
	</g>
</g>
<g>
</g>
<g>
</g>
<g>
</g>
<g>
</g>
<g>
</g>
<g>
</g>
<g>
</g>
<g>
</g>
<g>
</g>
<g>
</g>
<g>
</g>
<g>
</g>
<g>
</g>
<g>
</g>
<g>
</g>
</svg>
