<?xml version="1.0" encoding="iso-8859-1"?>
<!-- Generator: Adobe Illustrator 18.0.0, SVG Export Plug-In . SVG Version: 6.00 Build 0)  -->
<!DOCTYPE svg PUBLIC "-//W3C//DTD SVG 1.1//EN" "http://www.w3.org/Graphics/SVG/1.1/DTD/svg11.dtd">
<svg version="1.1" fill="#3331bf" id="Capa_1" xmlns="http://www.w3.org/2000/svg" xmlns:xlink="http://www.w3.org/1999/xlink" x="0px" y="0px"
	 viewBox="0 0 492.57 492.57" style="enable-background:new 0 0 492.57 492.57;" xml:space="preserve">
<g>
	<path d="M463.762,187.737l-21.781-34.073C437.21,146,428.987,141.42,419.96,141.42h-16.058c-9.221,0-16.734,7.505-16.734,16.735
		v41.883c0,0.033-0.015,0.056-0.015,0.081c0,0.025,0.015,58.456,0.015,58.456H20.087C9.012,258.574,0,267.585,0,278.669v19.732
		c0,15.888,12.93,28.809,28.809,28.809h19.62c2.805,19.967,19.83,35.427,40.56,35.427c20.733,0,37.756-15.46,40.563-35.427h115.54
		c2.805,19.967,19.814,35.427,40.544,35.427c20.732,0,37.757-15.46,40.562-35.427h39.641c2.807,19.967,19.83,35.427,40.563,35.427
		c20.731,0,37.756-15.46,40.561-35.427h16.799c15.879,0,28.809-12.921,28.809-28.809v-81.856
		C492.57,200.675,479.657,187.754,463.762,187.737z M420.943,166.724l13.043,21.013h-22.055v-21.296L420.943,166.724z
		 M391.248,283.336c-9.124,3.635-16.54,10.487-21.085,19.111h-48.283c-4.546-8.624-11.964-15.477-21.088-19.111h86.377H391.248z
		 M249.413,302.448H125.23c-4.545-8.624-11.962-15.477-21.086-19.111h166.34C261.358,286.971,253.959,293.824,249.413,302.448z
		 M24.763,298.401v-15.065h49.074c-9.125,3.635-16.541,10.487-21.087,19.111H28.809C26.585,302.448,24.763,300.635,24.763,298.401z
		 M88.989,337.874c-9.026,0-16.379-7.351-16.379-16.378c0-9.028,7.353-16.371,16.379-16.371c9.028,0,16.379,7.343,16.379,16.371
		C105.369,330.523,98.018,337.874,88.989,337.874z M285.637,337.874c-9.027,0-16.363-7.351-16.363-16.378
		c0-9.028,7.336-16.371,16.363-16.371c9.028,0,16.379,7.343,16.379,16.371C302.016,330.523,294.665,337.874,285.637,337.874z
		 M406.402,337.874c-9.028,0-16.379-7.351-16.379-16.378c0-9.028,7.351-16.371,16.379-16.371c9.026,0,16.379,7.343,16.379,16.371
		C422.782,330.523,415.429,337.874,406.402,337.874z M467.808,298.401c0,2.234-1.823,4.046-4.046,4.046h-21.119
		c-4.546-8.624-11.961-15.477-21.087-19.111h46.253V298.401z M411.931,258.574V212.5h51.814c2.24,0,4.063,1.814,4.063,4.046v42.028
		H411.931z"/>
	<path d="M17.766,249.958h351.348c4.563,0,8.254-3.692,8.254-8.254V138.188c0-4.561-3.691-8.254-8.254-8.254H17.766
		c-4.562,0-8.254,3.693-8.254,8.254v103.516C9.512,246.266,13.204,249.958,17.766,249.958z M26.021,146.442h334.839v87.008H26.021
		V146.442z"/>
</g>
<g>
</g>
<g>
</g>
<g>
</g>
<g>
</g>
<g>
</g>
<g>
</g>
<g>
</g>
<g>
</g>
<g>
</g>
<g>
</g>
<g>
</g>
<g>
</g>
<g>
</g>
<g>
</g>
<g>
</g>
</svg>
