<?xml version="1.0" encoding="iso-8859-1"?>
<!-- Generator: Adobe Illustrator 18.0.0, SVG Export Plug-In . SVG Version: 6.00 Build 0)  -->
<!DOCTYPE svg PUBLIC "-//W3C//DTD SVG 1.1//EN" "http://www.w3.org/Graphics/SVG/1.1/DTD/svg11.dtd">
<svg version="1.1" fill="#3331bf" id="Capa_1" xmlns="http://www.w3.org/2000/svg" xmlns:xlink="http://www.w3.org/1999/xlink" x="0px" y="0px"
	 viewBox="0 0 330.546 330.546" style="enable-background:new 0 0 330.546 330.546;" xml:space="preserve">
<g>
	<path d="M323.043,186.573H210.107c0.06-1.215,0.101-2.438,0.101-3.672c0-8.579-1.491-16.717-4.142-24.033h45.48
		c4.144,0,7.502-3.359,7.502-7.502c0-4.144-3.359-7.502-7.502-7.502h-53.366c-6.595-9.068-15.448-15.41-25.407-17.559V97.733
		c0-4.144-3.359-7.503-7.502-7.503c-4.144,0-7.502,3.359-7.502,7.503v28.571c-9.958,2.148-18.811,8.49-25.405,17.559H78.995
		c-4.144,0-7.502,3.359-7.502,7.502c0,4.144,3.359,7.502,7.502,7.502h45.483c-2.651,7.316-4.142,15.455-4.142,24.033
		c0,1.234,0.041,2.457,0.101,3.672H7.502c-4.144,0-7.502,3.359-7.502,7.502c0,4.144,3.359,7.503,7.502,7.503h39.624
		c-0.723,2.171-1.12,4.49-1.12,6.9c0,12.078,9.827,21.903,21.905,21.903c12.077,0,21.902-9.826,21.902-21.903
		c0-2.411-0.397-4.73-1.12-6.9h34.097c6.08,22.514,22.82,38.738,42.48,38.738c19.661,0,36.402-16.224,42.483-38.738h34.098
		c-0.723,2.171-1.12,4.49-1.12,6.9c0,12.078,9.826,21.903,21.904,21.903c12.077,0,21.902-9.826,21.902-21.903
		c0-2.411-0.397-4.73-1.12-6.9h39.624c4.144,0,7.502-3.359,7.502-7.503C330.546,189.932,327.187,186.573,323.043,186.573z
		 M74.808,208.478c0,3.804-3.094,6.898-6.897,6.898c-3.805,0-6.9-3.095-6.9-6.898c0-3.805,3.095-6.9,6.9-6.9
		C71.714,201.578,74.808,204.673,74.808,208.478z M165.271,225.311c-16.503,0-29.929-19.025-29.929-42.41
		c0-23.384,13.426-42.408,29.929-42.408c16.505,0,29.933,19.024,29.933,42.408C195.204,206.286,181.776,225.311,165.271,225.311z
		 M269.534,208.478c0,3.804-3.094,6.898-6.897,6.898c-3.804,0-6.899-3.095-6.899-6.898c0-3.805,3.095-6.9,6.899-6.9
		C266.44,201.578,269.534,204.673,269.534,208.478z"/>
	<path d="M178.121,158.264h-26.173c-4.144,0-7.502,3.359-7.502,7.503c0,4.143,3.359,7.502,7.502,7.502h26.173
		c4.144,0,7.503-3.359,7.503-7.502C185.624,161.623,182.265,158.264,178.121,158.264z"/>
</g>
<g>
</g>
<g>
</g>
<g>
</g>
<g>
</g>
<g>
</g>
<g>
</g>
<g>
</g>
<g>
</g>
<g>
</g>
<g>
</g>
<g>
</g>
<g>
</g>
<g>
</g>
<g>
</g>
<g>
</g>
</svg>
