<?xml version='1.0' encoding='iso-8859-1'?>
<svg version="1.1" fill="#3331bf" xmlns="http://www.w3.org/2000/svg" viewBox="0 0 490 490" xmlns:xlink="http://www.w3.org/1999/xlink" enable-background="new 0 0 490 490">
  <g>
    <g>
      <path d="M404.5,269.5V103.7h-19.8v165.8h-69.8V167.3H295v102.2h-36.9l-65.2-147h-32.4L151.2,61H82.4L73,122.5H41.7v147H0L36.5,429    h334.6L490,269.5H404.5z M100.1,80.8h33.4l6.3,41.7H93.9L100.1,80.8z M62.6,143.4h116.7l20.9,46.9H62.6V143.4z M209.1,210.1    l26.5,59.4h-173v-59.4H209.1z M361.8,408.1H53.2L25,289.3h425.3L361.8,408.1z"/>
      <rect width="22.9" x="77.2" y="318.5" height="19.8"/>
      <rect width="22.9" x="131.4" y="318.5" height="19.8"/>
      <rect width="22.9" x="185.6" y="318.5" height="19.8"/>
      <rect width="22.9" x="239.8" y="318.5" height="19.8"/>
      <rect width="22.9" x="294" y="318.5" height="19.8"/>
      <rect width="22.9" x="348.2" y="318.5" height="19.8"/>
    </g>
  </g>
</svg>
