<?xml version="1.0" encoding="iso-8859-1"?>
<!-- Generator: Adobe Illustrator 19.0.0, SVG Export Plug-In . SVG Version: 6.00 Build 0)  -->
<svg version="1.1" fill="#3331bf" id="Layer_1" xmlns="http://www.w3.org/2000/svg" xmlns:xlink="http://www.w3.org/1999/xlink" x="0px" y="0px"
	 viewBox="0 0 196 196" style="enable-background:new 0 0 196 196;" xml:space="preserve">
<g>
	<g>
		<g>
			<path d="M189,78.75v-31.5c0-0.94-0.378-1.841-1.049-2.499c-0.67-0.658-1.538-1.003-2.519-1.001l-68.877,1.343
				c-0.577,0.012-1.143,0.166-1.647,0.449L99.425,54.25H3.5c-1.933,0-3.5,1.567-3.5,3.5v77c0,1.933,1.567,3.5,3.5,3.5h24.854
				c1.626,7.978,8.696,14,17.146,14s15.52-6.022,17.146-14H105c1.933,0,3.5-1.567,3.5-3.5v-52.5h77
				C187.433,82.25,189,80.683,189,78.75z M45.5,145.25c-5.79,0-10.5-4.71-10.5-10.5s4.71-10.5,10.5-10.5s10.5,4.71,10.5,10.5
				S51.29,145.25,45.5,145.25z M182,75.25h-77c-1.933,0-3.5,1.567-3.5,3.5v52.5H62.648c-0.001-0.003-0.002-0.006-0.003-0.009
				c-0.013-0.063-0.041-0.12-0.054-0.183c-0.218-1.008-0.524-1.981-0.907-2.917c-0.136-0.333-0.32-0.636-0.476-0.959
				c-0.31-0.642-0.631-1.273-1.015-1.868c-0.223-0.347-0.477-0.664-0.723-0.993c-0.391-0.523-0.796-1.029-1.241-1.504
				c-0.293-0.312-0.598-0.603-0.912-0.892c-0.471-0.434-0.96-0.838-1.476-1.218c-0.344-0.255-0.688-0.501-1.052-0.73
				c-0.555-0.35-1.134-0.652-1.729-0.939c-0.372-0.18-0.734-0.37-1.12-0.524c-0.672-0.267-1.372-0.464-2.081-0.647
				c-0.348-0.09-0.679-0.212-1.035-0.28c-1.079-0.209-2.186-0.336-3.325-0.336c-1.139,0-2.246,0.127-3.325,0.336
				c-0.355,0.069-0.687,0.19-1.035,0.28c-0.709,0.183-1.409,0.38-2.081,0.647c-0.386,0.154-0.748,0.344-1.12,0.524
				c-0.594,0.287-1.174,0.589-1.729,0.939c-0.363,0.23-0.707,0.476-1.052,0.73c-0.516,0.381-1.005,0.784-1.476,1.218
				c-0.314,0.29-0.62,0.58-0.912,0.892c-0.446,0.475-0.85,0.981-1.241,1.504c-0.246,0.329-0.5,0.646-0.723,0.993
				c-0.384,0.595-0.705,1.226-1.015,1.868c-0.156,0.322-0.339,0.625-0.476,0.959c-0.384,0.936-0.689,1.909-0.907,2.917
				c-0.013,0.063-0.041,0.12-0.054,0.183c-0.001,0.004-0.002,0.006-0.003,0.009H7v-70h93.341c0.602,0,1.191-0.155,1.716-0.449
				l15.514-8.724L182,50.818V75.25z"/>
			<path d="M195.481,132.916l-28-45.5c-0.638-1.036-1.765-1.666-2.981-1.666h-49c-1.933,0-3.5,1.567-3.5,3.5v45.5
				c0,1.933,1.567,3.5,3.5,3.5h21.354c1.626,7.978,8.696,14,17.146,14s15.52-6.022,17.146-14H192.5c1.268,0,2.437-0.685,3.056-1.793
				C196.174,135.35,196.145,133.996,195.481,132.916z M154,145.25c-5.79,0-10.5-4.71-10.5-10.5s4.71-10.5,10.5-10.5
				s10.5,4.71,10.5,10.5S159.79,145.25,154,145.25z M171.148,131.25c-0.001-0.003-0.002-0.006-0.003-0.009
				c-0.013-0.063-0.041-0.12-0.054-0.183c-0.218-1.008-0.524-1.981-0.907-2.917c-0.136-0.333-0.32-0.636-0.476-0.959
				c-0.31-0.642-0.631-1.273-1.015-1.868c-0.223-0.347-0.477-0.664-0.723-0.993c-0.391-0.523-0.796-1.029-1.241-1.504
				c-0.293-0.312-0.598-0.603-0.912-0.892c-0.471-0.434-0.96-0.838-1.476-1.218c-0.344-0.255-0.688-0.501-1.052-0.73
				c-0.555-0.35-1.134-0.652-1.729-0.939c-0.372-0.18-0.734-0.37-1.12-0.524c-0.672-0.267-1.372-0.464-2.081-0.647
				c-0.348-0.09-0.679-0.212-1.035-0.28c-1.079-0.209-2.186-0.336-3.325-0.336c-1.139,0-2.246,0.127-3.325,0.336
				c-0.355,0.069-0.687,0.19-1.035,0.28c-0.709,0.183-1.409,0.38-2.081,0.647c-0.386,0.154-0.748,0.344-1.12,0.524
				c-0.594,0.287-1.174,0.589-1.729,0.939c-0.363,0.23-0.707,0.476-1.052,0.73c-0.516,0.381-1.005,0.784-1.476,1.218
				c-0.314,0.29-0.62,0.58-0.912,0.892c-0.446,0.475-0.85,0.981-1.241,1.504c-0.246,0.329-0.5,0.646-0.723,0.993
				c-0.384,0.595-0.705,1.226-1.015,1.868c-0.156,0.322-0.339,0.625-0.476,0.959c-0.384,0.936-0.689,1.909-0.907,2.917
				c-0.013,0.063-0.041,0.12-0.054,0.183c-0.001,0.003-0.002,0.006-0.003,0.009H119v-38.5h43.545l23.692,38.5H171.148z"/>
			<path d="M94.5,71.75H14c-1.933,0-3.5,1.567-3.5,3.5v24.5c0,1.933,1.567,3.5,3.5,3.5h80.5c1.933,0,3.5-1.567,3.5-3.5v-24.5
				C98,73.317,96.433,71.75,94.5,71.75z M35,96.25H17.5v-17.5H35V96.25z M91,96.25H42v-17.5h49V96.25z"/>
			<rect x="122.5" y="96.25" width="7" height="17.5"/>
		</g>
	</g>
</g>
<g>
</g>
<g>
</g>
<g>
</g>
<g>
</g>
<g>
</g>
<g>
</g>
<g>
</g>
<g>
</g>
<g>
</g>
<g>
</g>
<g>
</g>
<g>
</g>
<g>
</g>
<g>
</g>
<g>
</g>
</svg>
